<svg width="820" height="620" viewBox="0 0 820 620" fill="none" xmlns="http://www.w3.org/2000/svg">
  <rect width="820" height="620" rx="34" fill="#13202A"/>
  <circle cx="660" cy="108" r="78" fill="#FFCF4D"/>
  <circle cx="654" cy="102" r="78" fill="#13202A"/>
  <circle cx="172" cy="130" r="4" fill="#F7F9FB"/>
  <circle cx="238" cy="84" r="3" fill="#F7F9FB"/>
  <circle cx="730" cy="260" r="3" fill="#F7F9FB"/>
  <circle cx="636" cy="360" r="4" fill="#F7F9FB"/>
  <circle cx="110" cy="450" r="3" fill="#F7F9FB"/>
  <circle cx="411" cy="94" r="3" fill="#F7F9FB"/>
  <circle cx="322" cy="392" r="176" stroke="#FFCF4D" stroke-width="2" stroke-dasharray="8 12"/>
  <circle cx="322" cy="392" r="126" stroke="#2EA6A1" stroke-width="2"/>
  <circle cx="322" cy="392" r="76" stroke="#EC5F5A" stroke-width="2"/>
  <path d="M322 215V570M144 392H500M196 266L448 518M448 266L196 518" stroke="#F7F9FB" stroke-width="1.6" stroke-opacity=".48"/>
  <rect x="475" y="178" width="214" height="286" rx="28" fill="#F7F9FB"/>
  <rect x="497" y="212" width="170" height="34" rx="17" fill="#13202A"/>
  <circle cx="520" cy="229" r="7" fill="#4A9F58"/>
  <rect x="497" y="270" width="132" height="42" rx="14" fill="#FFCF4D"/>
  <rect x="530" y="330" width="137" height="42" rx="14" fill="#2EA6A1"/>
  <rect x="497" y="390" width="150" height="42" rx="14" fill="#EC5F5A"/>
  <path d="M545 124C574 93 626 93 654 125C682 157 681 210 651 240L545 346L439 240C409 210 408 157 436 125C464 93 516 93 545 124Z" fill="#FFCF4D"/>
  <path d="M545 158C562 140 594 140 611 159C629 178 628 210 610 229L545 294L480 229C462 210 461 178 479 159C496 140 528 140 545 158Z" fill="#13202A"/>
  <rect x="92" y="166" width="182" height="96" rx="24" fill="#F7F9FB"/>
  <circle cx="132" cy="214" r="24" fill="#2EA6A1"/>
  <rect x="170" y="194" width="70" height="12" rx="6" fill="#13202A"/>
  <rect x="170" y="220" width="48" height="10" rx="5" fill="#82919B"/>
  <rect x="108" y="500" width="190" height="62" rx="20" fill="#F7F9FB"/>
  <rect x="132" y="524" width="142" height="14" rx="7" fill="#13202A"/>
</svg>
